<svg xmlns="http://www.w3.org/2000/svg" height="300" width="300" viewBox="0 0 49 49" role="img" class="rounded-lg"><path fill="#FFFFFF" d="M0,0 h49v49H0z" shape-rendering="crispEdges"/><path fill="#000000" d="M0 0h7v1H0zM8 0h1v1H8zM10 0h1v1H10zM13 0h2v1H13zM19 0h3v1H19zM28 0h1v1H28zM30 0h2v1H30zM36 0h1v1H36zM40 0h1v1H40zM42,0 h7v1H42zM0 1h1v1H0zM6 1h1v1H6zM8 1h3v1H8zM14 1h3v1H14zM21 1h2v1H21zM25 1h3v1H25zM31 1h10v1H31zM42 1h1v1H42zM48,1 h1v1H48zM0 2h1v1H0zM2 2h3v1H2zM6 2h1v1H6zM8 2h7v1H8zM20 2h2v1H20zM24 2h2v1H24zM28 2h1v1H28zM31 2h5v1H31zM39 2h2v1H39zM42 2h1v1H42zM44 2h3v1H44zM48,2 h1v1H48zM0 3h1v1H0zM2 3h3v1H2zM6 3h1v1H6zM9 3h1v1H9zM12 3h1v1H12zM14 3h1v1H14zM17 3h2v1H17zM21 3h4v1H21zM27 3h1v1H27zM30 3h2v1H30zM34 3h4v1H34zM39 3h1v1H39zM42 3h1v1H42zM44 3h3v1H44zM48,3 h1v1H48zM0 4h1v1H0zM2 4h3v1H2zM6 4h1v1H6zM9 4h3v1H9zM13 4h2v1H13zM16 4h2v1H16zM20 4h7v1H20zM28 4h1v1H28zM30 4h4v1H30zM37 4h1v1H37zM42 4h1v1H42zM44 4h3v1H44zM48,4 h1v1H48zM0 5h1v1H0zM6 5h1v1H6zM8 5h1v1H8zM10 5h1v1H10zM12 5h1v1H12zM14 5h1v1H14zM18 5h3v1H18zM22 5h1v1H22zM26 5h1v1H26zM30 5h1v1H30zM32 5h3v1H32zM36 5h1v1H36zM38 5h1v1H38zM42 5h1v1H42zM48,5 h1v1H48zM0 6h7v1H0zM8 6h1v1H8zM10 6h1v1H10zM12 6h1v1H12zM14 6h1v1H14zM16 6h1v1H16zM18 6h1v1H18zM20 6h1v1H20zM22 6h1v1H22zM24 6h1v1H24zM26 6h1v1H26zM28 6h1v1H28zM30 6h1v1H30zM32 6h1v1H32zM34 6h1v1H34zM36 6h1v1H36zM38 6h1v1H38zM40 6h1v1H40zM42,6 h7v1H42zM8 7h3v1H8zM17 7h3v1H17zM21 7h2v1H21zM26 7h4v1H26zM31 7h1v1H31zM34 7h3v1H34zM39 7h1v1H39zM2 8h3v1H2zM6 8h1v1H6zM8 8h1v1H8zM10 8h2v1H10zM15 8h1v1H15zM22 8h6v1H22zM29 8h3v1H29zM33 8h1v1H33zM36 8h1v1H36zM38 8h6v1H38zM46,8 h3v1H46zM0 9h1v1H0zM3 9h3v1H3zM7 9h2v1H7zM13 9h3v1H13zM17 9h3v1H17zM21 9h1v1H21zM24 9h2v1H24zM27 9h1v1H27zM30 9h1v1H30zM32 9h1v1H32zM35 9h2v1H35zM39 9h1v1H39zM41 9h3v1H41zM46 9h1v1H46zM0 10h3v1H0zM5 10h2v1H5zM11 10h1v1H11zM13 10h1v1H13zM15 10h2v1H15zM19 10h3v1H19zM23 10h1v1H23zM28 10h3v1H28zM33 10h2v1H33zM36 10h3v1H36zM40 10h2v1H40zM44 10h1v1H44zM47,10 h2v1H47zM0 11h3v1H0zM8 11h1v1H8zM10 11h2v1H10zM13 11h1v1H13zM16 11h1v1H16zM18 11h2v1H18zM22 11h1v1H22zM25 11h1v1H25zM27 11h1v1H27zM29 11h2v1H29zM33 11h1v1H33zM35 11h1v1H35zM41 11h1v1H41zM44 11h1v1H44zM1 12h2v1H1zM4 12h1v1H4zM6 12h3v1H6zM10 12h1v1H10zM12 12h1v1H12zM15 12h2v1H15zM18 12h1v1H18zM20 12h4v1H20zM26 12h1v1H26zM29 12h3v1H29zM33 12h8v1H33zM43 12h1v1H43zM45 12h3v1H45zM3 13h3v1H3zM9 13h1v1H9zM11 13h2v1H11zM14 13h1v1H14zM16 13h1v1H16zM19 13h1v1H19zM21 13h2v1H21zM24 13h3v1H24zM29 13h2v1H29zM32 13h1v1H32zM37 13h1v1H37zM39 13h1v1H39zM42 13h2v1H42zM45 13h1v1H45zM47 13h1v1H47zM0 14h2v1H0zM3 14h5v1H3zM10 14h1v1H10zM12 14h4v1H12zM17 14h2v1H17zM23 14h2v1H23zM26 14h4v1H26zM32 14h3v1H32zM36 14h1v1H36zM38 14h3v1H38zM43 14h1v1H43zM45,14 h4v1H45zM2 15h4v1H2zM7 15h2v1H7zM11 15h1v1H11zM14 15h1v1H14zM16 15h2v1H16zM20 15h1v1H20zM23 15h2v1H23zM26 15h1v1H26zM28 15h1v1H28zM31 15h2v1H31zM34 15h1v1H34zM37 15h4v1H37zM42 15h1v1H42zM44 15h1v1H44zM47 15h1v1H47zM0 16h1v1H0zM2 16h1v1H2zM6 16h1v1H6zM9 16h1v1H9zM14 16h3v1H14zM18 16h3v1H18zM25 16h3v1H25zM30 16h2v1H30zM33 16h4v1H33zM38 16h2v1H38zM42 16h2v1H42zM45 16h3v1H45zM3 17h1v1H3zM7 17h4v1H7zM14 17h1v1H14zM16 17h1v1H16zM20 17h1v1H20zM24 17h1v1H24zM27 17h2v1H27zM30 17h1v1H30zM34 17h1v1H34zM37 17h3v1H37zM41 17h2v1H41zM44 17h3v1H44zM1 18h3v1H1zM5 18h4v1H5zM10 18h2v1H10zM13 18h1v1H13zM16 18h2v1H16zM20 18h3v1H20zM24 18h1v1H24zM26 18h1v1H26zM32 18h2v1H32zM36 18h1v1H36zM39 18h2v1H39zM43 18h3v1H43zM47,18 h2v1H47zM0 19h3v1H0zM4 19h2v1H4zM10 19h1v1H10zM12 19h1v1H12zM14 19h4v1H14zM21 19h4v1H21zM27 19h1v1H27zM29 19h3v1H29zM37 19h2v1H37zM42 19h3v1H42zM47 19h1v1H47zM0 20h2v1H0zM4 20h1v1H4zM6 20h4v1H6zM12 20h3v1H12zM16 20h1v1H16zM23 20h6v1H23zM32 20h7v1H32zM40 20h1v1H40zM42 20h2v1H42zM46,20 h3v1H46zM0 21h1v1H0zM2 21h2v1H2zM5 21h1v1H5zM8 21h3v1H8zM13 21h1v1H13zM16 21h2v1H16zM21 21h2v1H21zM24 21h1v1H24zM27 21h1v1H27zM30 21h1v1H30zM41 21h2v1H41zM0 22h1v1H0zM4 22h5v1H4zM12 22h1v1H12zM15 22h1v1H15zM17 22h4v1H17zM22 22h5v1H22zM28 22h1v1H28zM30 22h2v1H30zM33 22h2v1H33zM36 22h1v1H36zM38 22h1v1H38zM40 22h5v1H40zM47,22 h2v1H47zM0 23h3v1H0zM4 23h1v1H4zM8 23h3v1H8zM12 23h3v1H12zM16 23h1v1H16zM18 23h1v1H18zM20 23h1v1H20zM22 23h1v1H22zM26 23h1v1H26zM28 23h4v1H28zM33 23h3v1H33zM37 23h4v1H37zM44 23h1v1H44zM48,23 h1v1H48zM0 24h1v1H0zM4 24h1v1H4zM6 24h1v1H6zM8 24h2v1H8zM13 24h1v1H13zM15 24h3v1H15zM19 24h4v1H19zM24 24h1v1H24zM26 24h4v1H26zM33 24h1v1H33zM35 24h6v1H35zM42 24h1v1H42zM44 24h1v1H44zM46 24h2v1H46zM4 25h1v1H4zM8 25h1v1H8zM10 25h1v1H10zM13 25h3v1H13zM18 25h1v1H18zM22 25h1v1H22zM26 25h1v1H26zM30 25h2v1H30zM35 25h3v1H35zM40 25h1v1H40zM44 25h4v1H44zM2 26h1v1H2zM4 26h5v1H4zM11 26h1v1H11zM13 26h3v1H13zM17 26h1v1H17zM22 26h9v1H22zM34 26h1v1H34zM38 26h1v1H38zM40,26 h9v1H40zM1 27h1v1H1zM3 27h1v1H3zM7 27h1v1H7zM9 27h1v1H9zM11 27h1v1H11zM14 27h4v1H14zM21 27h2v1H21zM24 27h3v1H24zM28 27h1v1H28zM30 27h3v1H30zM34 27h1v1H34zM37 27h2v1H37zM41 27h1v1H41zM43 27h1v1H43zM47,27 h2v1H47zM0 28h1v1H0zM4 28h5v1H4zM10 28h1v1H10zM12 28h1v1H12zM15 28h2v1H15zM20 28h1v1H20zM23 28h1v1H23zM26 28h1v1H26zM28 28h1v1H28zM30 28h2v1H30zM34 28h4v1H34zM39 28h3v1H39zM43,28 h6v1H43zM3 29h3v1H3zM10 29h1v1H10zM12 29h2v1H12zM16 29h2v1H16zM19 29h4v1H19zM24 29h4v1H24zM29 29h1v1H29zM37 29h1v1H37zM41 29h1v1H41zM43 29h1v1H43zM46 29h1v1H46zM0 30h2v1H0zM6 30h1v1H6zM8 30h3v1H8zM14 30h1v1H14zM18 30h1v1H18zM23 30h1v1H23zM25 30h2v1H25zM32 30h4v1H32zM38 30h5v1H38zM44 30h2v1H44zM47,30 h2v1H47zM0 31h4v1H0zM8 31h1v1H8zM13 31h1v1H13zM15 31h5v1H15zM21 31h1v1H21zM24 31h1v1H24zM26 31h1v1H26zM29 31h2v1H29zM34 31h1v1H34zM36 31h2v1H36zM40 31h2v1H40zM43 31h3v1H43zM47 31h1v1H47zM1 32h1v1H1zM6 32h1v1H6zM10 32h1v1H10zM14 32h1v1H14zM16 32h3v1H16zM21 32h4v1H21zM27 32h1v1H27zM31 32h2v1H31zM34 32h2v1H34zM37 32h1v1H37zM39 32h3v1H39zM44 32h4v1H44zM1 33h1v1H1zM3 33h1v1H3zM5 33h1v1H5zM9 33h1v1H9zM19 33h1v1H19zM23 33h1v1H23zM27 33h2v1H27zM30 33h1v1H30zM32 33h1v1H32zM40 33h1v1H40zM43 33h1v1H43zM45 33h1v1H45zM0 34h3v1H0zM5 34h2v1H5zM8 34h1v1H8zM12 34h2v1H12zM15 34h2v1H15zM18 34h1v1H18zM20 34h1v1H20zM22 34h1v1H22zM25 34h3v1H25zM31 34h5v1H31zM38 34h2v1H38zM41 34h3v1H41zM47,34 h2v1H47zM0 35h2v1H0zM3 35h1v1H3zM7 35h1v1H7zM9 35h4v1H9zM14 35h1v1H14zM17 35h2v1H17zM20 35h2v1H20zM24 35h1v1H24zM26 35h1v1H26zM32 35h1v1H32zM34 35h1v1H34zM40 35h1v1H40zM44 35h1v1H44zM47,35 h2v1H47zM0 36h1v1H0zM2 36h1v1H2zM5 36h4v1H5zM10 36h3v1H10zM14 36h1v1H14zM16 36h5v1H16zM22 36h1v1H22zM25 36h1v1H25zM27 36h2v1H27zM31 36h1v1H31zM34 36h6v1H34zM42 36h1v1H42zM44 36h3v1H44zM48,36 h1v1H48zM2 37h4v1H2zM7 37h2v1H7zM10 37h1v1H10zM16 37h1v1H16zM19 37h2v1H19zM22 37h2v1H22zM25 37h2v1H25zM29 37h1v1H29zM31 37h2v1H31zM35 37h2v1H35zM41 37h1v1H41zM43 37h1v1H43zM1 38h1v1H1zM5 38h4v1H5zM11 38h1v1H11zM13 38h2v1H13zM17 38h1v1H17zM19 38h2v1H19zM22 38h4v1H22zM30 38h1v1H30zM33 38h3v1H33zM38 38h6v1H38zM48,38 h1v1H48zM1 39h3v1H1zM14 39h1v1H14zM16 39h1v1H16zM19 39h1v1H19zM22 39h1v1H22zM24 39h3v1H24zM28 39h2v1H28zM32 39h2v1H32zM43 39h3v1H43zM0 40h3v1H0zM6 40h1v1H6zM8 40h1v1H8zM10 40h2v1H10zM14 40h1v1H14zM18 40h3v1H18zM22 40h5v1H22zM30 40h1v1H30zM35 40h3v1H35zM39 40h8v1H39zM48,40 h1v1H48zM8 41h1v1H8zM11 41h3v1H11zM17 41h1v1H17zM19 41h1v1H19zM21 41h2v1H21zM26 41h1v1H26zM28 41h1v1H28zM30 41h1v1H30zM32 41h2v1H32zM35 41h1v1H35zM40 41h1v1H40zM44 41h1v1H44zM47 41h1v1H47zM0 42h7v1H0zM9 42h1v1H9zM13 42h1v1H13zM19 42h1v1H19zM22 42h1v1H22zM24 42h1v1H24zM26 42h3v1H26zM35 42h1v1H35zM37 42h1v1H37zM40 42h1v1H40zM42 42h1v1H42zM44 42h2v1H44zM47,42 h2v1H47zM0 43h1v1H0zM6 43h1v1H6zM10 43h3v1H10zM14 43h2v1H14zM18 43h2v1H18zM21 43h2v1H21zM26 43h3v1H26zM32 43h4v1H32zM37 43h4v1H37zM44 43h1v1H44zM47,43 h2v1H47zM0 44h1v1H0zM2 44h3v1H2zM6 44h1v1H6zM8 44h1v1H8zM14 44h2v1H14zM17 44h4v1H17zM22 44h7v1H22zM31 44h1v1H31zM35 44h10v1H35zM46,44 h3v1H46zM0 45h1v1H0zM2 45h3v1H2zM6 45h1v1H6zM8 45h2v1H8zM11 45h2v1H11zM14 45h4v1H14zM20 45h1v1H20zM22 45h2v1H22zM27 45h1v1H27zM30 45h1v1H30zM35 45h3v1H35zM39 45h3v1H39zM44 45h2v1H44zM48,45 h1v1H48zM0 46h1v1H0zM2 46h3v1H2zM6 46h1v1H6zM8 46h1v1H8zM12 46h1v1H12zM17 46h3v1H17zM21 46h3v1H21zM25 46h3v1H25zM31 46h4v1H31zM36 46h1v1H36zM38 46h1v1H38zM41 46h1v1H41zM43 46h1v1H43zM45,46 h4v1H45zM0 47h1v1H0zM6 47h1v1H6zM9 47h1v1H9zM11 47h1v1H11zM14 47h2v1H14zM18 47h3v1H18zM24 47h5v1H24zM32 47h1v1H32zM37 47h1v1H37zM39 47h1v1H39zM41 47h2v1H41zM45 47h1v1H45zM48,47 h1v1H48zM0 48h7v1H0zM9 48h3v1H9zM13 48h1v1H13zM17 48h2v1H17zM25 48h1v1H25zM28 48h4v1H28zM35 48h4v1H35zM44,48 h5v1H44z" shape-rendering="crispEdges"/></svg>